<svg width="24" height="24" viewBox="0 0 24 24" fill="none" xmlns="http://www.w3.org/2000/svg">
<path fill-rule="evenodd" clip-rule="evenodd" d="M4 4H20V20H4V4ZM3 21V3H21V21H3ZM15.096 15.784C15.2773 15.5173 15.368 15.1973 15.368 14.824V13.608C15.368 13.1067 15.16 12.648 14.744 12.232C15.16 11.816 15.368 11.352 15.368 10.84V9.656C15.368 9.26133 15.2773 8.93067 15.096 8.664C15.0213 8.55733 14.888 8.408 14.696 8.216C14.504 8.01333 14.3546 7.87467 14.248 7.8C13.896 7.55467 13.512 7.432 13.096 7.432H8.59998V17H13.096C13.5333 17 13.9173 16.8827 14.248 16.648C14.3546 16.5733 14.504 16.44 14.696 16.248C14.888 16.0453 15.0213 15.8907 15.096 15.784ZM13.688 10.808C13.688 10.8613 13.6826 10.8987 13.672 10.92C13.6186 11.0373 13.528 11.1547 13.4 11.272C13.272 11.3893 13.1706 11.448 13.096 11.448H10.28V9.032H13.08C13.1546 9.032 13.2506 9.096 13.368 9.224C13.496 9.34133 13.5973 9.464 13.672 9.592L13.688 9.672V10.808ZM13.688 14.76C13.688 14.8027 13.6826 14.84 13.672 14.872C13.6186 14.9893 13.528 15.1067 13.4 15.224C13.272 15.3413 13.1706 15.4 13.096 15.4H10.28V13H13.08C13.1546 13 13.2506 13.0587 13.368 13.176C13.496 13.2933 13.5973 13.416 13.672 13.544L13.688 13.624V14.76Z" fill="#DCDCDC"/>
</svg>
