<svg width="24" height="24" viewBox="0 0 24 24" fill="none" xmlns="http://www.w3.org/2000/svg">
<path fill-rule="evenodd" clip-rule="evenodd" d="M4 4H20V18.4679L15.3025 9.5H12.6843L10.1408 14.8413L9.36037 12.5H6.6703L4 18.7307V4ZM4.54398 20H7.6843L9.52076 16.1434L8.63961 13.5H7.32969L4.54398 20ZM8.79189 20H19.6737L14.6975 10.5H13.3157L8.79189 20ZM3 21V3H21V21H3ZM8.58579 9H9.41421L10 8.41421V7.5856L9.41428 7H8.58572L8 7.5856V8.41421L8.58579 9ZM9.82843 10L11 8.82843V7.17132L9.82843 6H8.17157L7 7.17132V8.82843L8.17157 10H9.82843Z" fill="#DCDCDC"/>
</svg>
