<svg width="24" height="24" viewBox="0 0 24 24" fill="none" xmlns="http://www.w3.org/2000/svg">
<path fill-rule="evenodd" clip-rule="evenodd" d="M4 4H20V20H4V4ZM3 21V3H21V21H3ZM8.85593 9.5H8.24093V7.095H7.70093V6.5H8.85593V9.5ZM16.5 8.5H11V7.5H16.5V8.5ZM16.5 16.5H11V15.5H16.5V16.5ZM11 12.5H16.5V11.5H11V12.5ZM7.92094 11.27C7.95427 11.1933 8.02427 11.125 8.13094 11.065H8.69594C8.70594 11.065 8.72427 11.0783 8.75094 11.105C8.7776 11.1317 8.79927 11.16 8.81594 11.19V11.5C8.81594 11.5233 8.80594 11.54 8.78594 11.55C8.6726 11.6033 8.50094 11.6867 8.27094 11.8C8.04427 11.9133 7.87594 11.9967 7.76594 12.05C7.6526 12.1067 7.55927 12.185 7.48594 12.285C7.4126 12.3817 7.37594 12.4917 7.37594 12.615V13.5H9.38594V12.915H7.98594V12.63C7.98594 12.6167 8.00094 12.6017 8.03094 12.585C8.14427 12.5317 8.3126 12.45 8.53594 12.34C8.75927 12.2267 8.9276 12.1433 9.04094 12.09C9.15094 12.0367 9.2426 11.96 9.31594 11.86C9.38927 11.76 9.42594 11.645 9.42594 11.515V11.2C9.42594 11.0633 9.39594 10.955 9.33594 10.875C9.23594 10.745 9.14427 10.6533 9.06094 10.6C8.9476 10.52 8.82594 10.48 8.69594 10.48H8.12094C7.8876 10.48 7.6676 10.6183 7.46094 10.895C7.4176 10.9517 7.37594 11.0283 7.33594 11.125L7.92094 11.27ZM9.43094 16.8C9.43094 16.9267 9.39927 17.0367 9.33594 17.13C9.3126 17.1667 9.26927 17.2167 9.20594 17.28C9.14594 17.34 9.0976 17.3833 9.06094 17.41C8.95094 17.4867 8.82927 17.525 8.69594 17.525H8.12094C7.8876 17.525 7.6676 17.385 7.46094 17.105C7.4176 17.045 7.37594 16.9683 7.33594 16.875L7.93094 16.715C7.97427 16.815 8.04094 16.89 8.13094 16.94H8.69094C8.70094 16.94 8.71927 16.9267 8.74594 16.9C8.77594 16.8733 8.80094 16.8433 8.82094 16.81V16.4C8.80427 16.3667 8.78094 16.3367 8.75094 16.31C8.72427 16.2833 8.70427 16.27 8.69094 16.27H8.01594V15.7H8.69594C8.70594 15.7 8.72427 15.6867 8.75094 15.66C8.78094 15.6333 8.80427 15.6033 8.82094 15.57V15.2C8.80094 15.1667 8.77594 15.1367 8.74594 15.11C8.71594 15.08 8.6976 15.065 8.69094 15.065H8.13094C8.03094 15.1117 7.96094 15.18 7.92094 15.27L7.77594 15.235C7.67927 15.2117 7.58094 15.1867 7.48094 15.16L7.33594 15.125C7.36594 15.0417 7.4076 14.965 7.46094 14.895C7.6776 14.6183 7.8976 14.48 8.12094 14.48H8.69594C8.82594 14.48 8.9476 14.52 9.06094 14.6C9.14427 14.6533 9.23594 14.745 9.33594 14.875C9.39927 14.955 9.43094 15.0633 9.43094 15.2V15.575C9.43094 15.7183 9.3726 15.855 9.25594 15.985C9.3726 16.1217 9.43094 16.2617 9.43094 16.405V16.8Z" fill="#DCDCDC"/>
</svg>
