<svg width="24" height="24" viewBox="0 0 24 24" fill="none" xmlns="http://www.w3.org/2000/svg">
<path fill-rule="evenodd" clip-rule="evenodd" d="M20 4H4V20H20V4ZM3 3V21H21V3H3ZM9.72266 6.58398L10.2774 7.41603L9.00001 8.2676V11.2071L8.20712 12L9.00001 12.7929V15.7324L10.2774 16.584L9.72267 17.416L8.00001 16.2676V13.2071L6.79291 12L8.00001 10.7929V7.73241L9.72266 6.58398ZM13.7226 7.41603L14.2773 6.58398L16 7.73241V10.7929L17.2071 12L16 13.2071V16.2676L14.2773 17.416L13.7226 16.584L15 15.7324V12.7929L15.7929 12L15 11.2071V8.26759L13.7226 7.41603Z" fill="#DCDCDC"/>
</svg>
