<svg width="24" height="24" viewBox="0 0 24 24" fill="none" xmlns="http://www.w3.org/2000/svg">
<path fill-rule="evenodd" clip-rule="evenodd" d="M4 4H20V20H4V4ZM3 21V3H21V21H3ZM14.1965 8.96713L12.0992 6.86982L8.96155 6.85363L6.75 9.06518L6.76585 12.2031L8.86319 14.3005L9.57029 13.5934L7.76376 11.7868L7.75209 9.4773L9.37363 7.85577L11.6829 7.86768L13.4894 9.67424L14.1965 8.96713ZM9.77859 15.2159L11.8759 17.3132L15.0136 17.3294L17.2251 15.1178L17.2093 11.9798L15.1119 9.88251L14.4048 10.5896L16.2114 12.3961L16.223 14.7057L14.6015 16.3272L12.2923 16.3153L10.4857 14.5087L9.77859 15.2159ZM13.4152 14.2262L9.8529 10.6639L10.56 9.9568L14.1223 13.5191L13.4152 14.2262Z" fill="#DCDCDC"/>
</svg>
