<svg width="24" height="24" viewBox="0 0 24 24" fill="none" xmlns="http://www.w3.org/2000/svg">
<path fill-rule="evenodd" clip-rule="evenodd" d="M12 6.375L16.5 9.75V16.5H13V15.5H15.5V10.25L12 7.625L8.5 10.25V15.5H11V16.5H7.5V9.75L12 6.375Z" fill="#DCDCDC"/>
<path fill-rule="evenodd" clip-rule="evenodd" d="M15.7279 21L21 15.7279V8.27088L15.728 3H13V2H16.1421L22 7.8566V16.1421L16.1421 22L13 22V21L15.7279 21ZM11 21L8.27208 21L3 15.7279V8.27088L8.27201 3H11V2H7.85786L2 7.8566V16.1421L7.85786 22L11 22V21Z" fill="#DCDCDC"/>
</svg>
