<svg width="24" height="24" viewBox="0 0 24 24" fill="none" xmlns="http://www.w3.org/2000/svg">
<path d="M9.99833 13.308C9.99833 13.5053 9.953 13.6707 9.86233 13.804C9.80367 13.8893 9.713 13.996 9.59033 14.124C9.46767 14.252 9.36633 14.34 9.28633 14.388C9.105 14.4893 8.929 14.54 8.75833 14.54H7.61433C7.433 14.54 7.257 14.4893 7.08633 14.388C7.00633 14.34 6.90233 14.252 6.77433 14.124C6.65167 13.9907 6.561 13.884 6.50233 13.804C6.41167 13.6707 6.36633 13.5053 6.36633 13.308V9.7H7.34233V13.3C7.47033 13.46 7.569 13.5613 7.63833 13.604H8.73433C8.83567 13.54 8.93167 13.4413 9.02233 13.308V9.7H9.99833V13.308Z" fill="#DCDCDC"/>
<path d="M14.4723 11.532C14.4723 11.7293 14.4216 11.9027 14.3203 12.052C14.2883 12.1053 14.2216 12.18 14.1203 12.276C14.0243 12.372 13.9469 12.4413 13.8883 12.484C13.8456 12.516 13.7816 12.5533 13.6963 12.596L14.7363 14.5H13.6483L12.6963 12.668H11.9283V14.5H10.9523V9.7H13.2883C13.5229 9.7 13.7229 9.76133 13.8883 9.884C14.0483 10.0067 14.1923 10.1533 14.3203 10.324C14.4216 10.4627 14.4723 10.6387 14.4723 10.852V11.532ZM13.4963 11.54V10.828C13.4429 10.7427 13.3736 10.6787 13.2883 10.636H11.9283V11.732H13.2883C13.3043 11.732 13.3363 11.7107 13.3843 11.668C13.4376 11.62 13.4749 11.5773 13.4963 11.54Z" fill="#DCDCDC"/>
<path d="M18.5797 14.5H15.4757V9.7H16.4517V13.556H18.5797V14.5Z" fill="#DCDCDC"/>
<path fill-rule="evenodd" clip-rule="evenodd" d="M13 21L15.7279 21L21 15.7279V8.27088L15.728 3H13V2H16.1421L22 7.8566V16.1421L16.1421 22L13 22V21ZM11 21L8.27208 21L3 15.7279V8.27088L8.27201 3H11V2H7.85786L2 7.8566V16.1421L7.85786 22L11 22V21Z" fill="#DCDCDC"/>
</svg>
